<svg xmlns="http://www.w3.org/2000/svg" height="48" width="48" fill="#f2f2f2"><path d="M11.55 44.45V35.6q-2.9-2.65-4.45-6.175Q5.55 25.9 5.55 22q0-7.75 5.35-13.15T24 3.45q6.4 0 11.35 3.825 4.95 3.825 6.5 9.825l2.75 11q.25.95-.325 1.65t-1.525.7h-4.2v6.15q0 1.6-1.15 2.725t-2.75 1.125h-4.1v4h-3.9V36.6h8v-10h5.6l-2.15-8.55q-1.25-4.65-5.15-7.675Q29.05 7.35 24 7.35q-6.1 0-10.35 4.25T9.4 21.9q0 3.1 1.275 5.975Q11.95 30.75 14.3 32.85l1.1 1.05v10.55ZM24.8 25.9Zm-2.55 3.45h3.3l.2-2.35q.55-.1.975-.35.425-.25.825-.6l2.2.65L31.3 24l-1.55-1.25q.2-.65.2-1.325 0-.675-.2-1.375l1.55-1.2-1.55-2.7-2.2.7q-.4-.4-.85-.675-.45-.275-.95-.375l-.2-2.3h-3.3l-.2 2.3q-.5.1-.95.375-.45.275-.85.675l-2.2-.7-1.55 2.7 1.55 1.2q-.25.7-.25 1.375t.25 1.325L16.5 24l1.55 2.7 2.2-.65q.4.35.825.6.425.25.975.35Zm1.65-4.4q-1.45 0-2.475-1.025Q20.4 22.9 20.4 21.4q0-1.45 1.025-2.475Q22.45 17.9 23.9 17.9q1.45 0 2.5 1.025t1.05 2.475q0 1.5-1.05 2.525t-2.5 1.025Z"/></svg>